<svg width="23" height="23" viewBox="0 0 23 23" fill="none" xmlns="http://www.w3.org/2000/svg">
<path d="M5.20004 9.4V7.3C5.20004 3.8245 6.25004 1 11.5 1C16.75 1 17.8 3.8245 17.8 7.3V9.4" stroke="#170F49" stroke-width="2" stroke-linecap="round" stroke-linejoin="round"/>
<path d="M11.5001 18.3247C12.9498 18.3247 14.1251 17.1494 14.1251 15.6997C14.1251 14.25 12.9498 13.0747 11.5001 13.0747C10.0503 13.0747 8.87506 14.25 8.87506 15.6997C8.87506 17.1494 10.0503 18.3247 11.5001 18.3247Z" stroke="#170F49" stroke-width="2" stroke-linecap="round" stroke-linejoin="round"/>
<path d="M16.75 21.9999H6.25C2.05 21.9999 1 20.9499 1 16.7499V14.6499C1 10.4499 2.05 9.3999 6.25 9.3999H16.75C20.95 9.3999 22 10.4499 22 14.6499V16.7499C22 20.9499 20.95 21.9999 16.75 21.9999Z" stroke="#170F49" stroke-width="2" stroke-linecap="round" stroke-linejoin="round"/>
</svg>
