<svg width="158" height="158" viewBox="0 0 158 158" fill="none" xmlns="http://www.w3.org/2000/svg">
<path d="M158 79C158 35.471 122.529 0 79 0C35.471 0 0 35.471 0 79C0 101.91 9.875 122.529 25.517 136.986C25.517 137.065 25.517 137.065 25.438 137.144C26.228 137.934 27.176 138.566 27.966 139.277C28.44 139.672 28.835 140.067 29.309 140.383C30.731 141.568 32.311 142.674 33.812 143.78C34.365 144.175 34.839 144.491 35.392 144.886C36.893 145.913 38.473 146.861 40.132 147.73C40.685 148.046 41.317 148.441 41.87 148.757C43.45 149.626 45.109 150.416 46.847 151.127C47.479 151.443 48.111 151.759 48.743 151.996C50.481 152.707 52.219 153.339 53.957 153.892C54.589 154.129 55.221 154.366 55.853 154.524C57.749 155.077 59.645 155.551 61.541 156.025C62.094 156.183 62.647 156.341 63.279 156.42C65.491 156.894 67.703 157.21 69.994 157.447C70.31 157.447 70.626 157.526 70.942 157.605C73.628 157.842 76.314 158 79 158C81.686 158 84.372 157.842 86.979 157.605C87.295 157.605 87.611 157.526 87.927 157.447C90.218 157.21 92.43 156.894 94.642 156.42C95.195 156.341 95.748 156.104 96.38 156.025C98.276 155.551 100.251 155.156 102.068 154.524C102.7 154.287 103.332 154.05 103.964 153.892C105.702 153.26 107.519 152.707 109.178 151.996C109.81 151.759 110.442 151.443 111.074 151.127C112.733 150.416 114.392 149.626 116.051 148.757C116.683 148.441 117.236 148.046 117.789 147.73C119.369 146.782 120.949 145.913 122.529 144.886C123.082 144.57 123.556 144.175 124.109 143.78C125.689 142.674 127.19 141.568 128.612 140.383C129.086 139.988 129.481 139.593 129.955 139.277C130.824 138.566 131.693 137.855 132.483 137.144C132.483 137.065 132.483 137.065 132.404 136.986C148.125 122.529 158 101.91 158 79ZM118.026 118.263C96.617 103.885 61.541 103.885 39.974 118.263C36.498 120.554 33.654 123.24 31.284 126.163C19.276 113.997 11.85 97.328 11.85 79C11.85 41.949 41.949 11.85 79 11.85C116.051 11.85 146.15 41.949 146.15 79C146.15 97.328 138.724 113.997 126.716 126.163C124.425 123.24 121.502 120.554 118.026 118.263Z" fill="#525252"/>
<path d="M78.9999 38.9443C62.6469 38.9443 49.3749 52.2163 49.3749 68.5694C49.3749 84.6064 61.9359 97.6414 78.6049 98.1154H79.3159H79.8689H80.0269C95.9849 97.5624 108.546 84.6064 108.625 68.5694C108.625 52.2163 95.3529 38.9443 78.9999 38.9443Z" fill="#525252"/>
</svg>
