<svg width="92" height="92" viewBox="0 0 92 92" fill="none" xmlns="http://www.w3.org/2000/svg">
<path d="M71.6744 40.6512C69.9199 40.6512 68.465 39.1963 68.465 37.4419V28.8837C68.465 15.4047 64.6567 6.4186 45.9999 6.4186C27.3432 6.4186 23.5348 15.4047 23.5348 28.8837V37.4419C23.5348 39.1963 22.0799 40.6512 20.3255 40.6512C18.5711 40.6512 17.1162 39.1963 17.1162 37.4419V28.8837C17.1162 16.4744 20.1116 0 45.9999 0C71.8883 0 74.8837 16.4744 74.8837 28.8837V37.4419C74.8837 39.1963 73.4288 40.6512 71.6744 40.6512Z" fill="#00A1FC"/>
<path d="M45.9998 77.0234C38.3402 77.0234 32.0928 70.776 32.0928 63.1164C32.0928 55.4569 38.3402 49.2095 45.9998 49.2095C53.6593 49.2095 59.9067 55.4569 59.9067 63.1164C59.9067 70.776 53.6593 77.0234 45.9998 77.0234ZM45.9998 55.6281C41.8918 55.6281 38.5114 59.0085 38.5114 63.1164C38.5114 67.2244 41.8918 70.6048 45.9998 70.6048C50.1077 70.6048 53.4881 67.2244 53.4881 63.1164C53.4881 59.0085 50.1077 55.6281 45.9998 55.6281Z" fill="#00A1FC"/>
<path d="M67.3953 91.9999H24.6047C5.73395 91.9999 0 86.2659 0 67.3952V58.8371C0 39.9664 5.73395 34.2324 24.6047 34.2324H67.3953C86.2661 34.2324 92 39.9664 92 58.8371V67.3952C92 86.2659 86.2661 91.9999 67.3953 91.9999ZM24.6047 40.651C9.28558 40.651 6.4186 43.5608 6.4186 58.8371V67.3952C6.4186 82.6715 9.28558 85.5813 24.6047 85.5813H67.3953C82.7144 85.5813 85.5814 82.6715 85.5814 67.3952V58.8371C85.5814 43.5608 82.7144 40.651 67.3953 40.651H24.6047Z" fill="#00A1FC"/>
</svg>
