<svg width="64" height="91" viewBox="0 0 64 91" fill="none" xmlns="http://www.w3.org/2000/svg">
<path d="M61.7576 23.75V67.25C61.7576 84.65 58.0227 89 43.0833 89H20.6742C5.73485 89 2 84.65 2 67.25V23.75C2 6.35 5.73485 2 20.6742 2H43.0833C58.0227 2 61.7576 6.35 61.7576 23.75Z" stroke="#00A1FC" stroke-width="4" stroke-linecap="round" stroke-linejoin="round"/>
<path d="M39.3486 17.2251H24.4092" stroke="#00A1FC" stroke-width="4" stroke-linecap="round" stroke-linejoin="round"/>
<path d="M31.8779 76.3849C35.0751 76.3849 37.6671 73.366 37.6671 69.6424C37.6671 65.9188 35.0751 62.8999 31.8779 62.8999C28.6807 62.8999 26.0889 65.9188 26.0889 69.6424C26.0889 73.366 28.6807 76.3849 31.8779 76.3849Z" stroke="#00A1FC" stroke-width="4" stroke-linecap="round" stroke-linejoin="round"/>
</svg>
